PathFileType	4	(x/y/z)	S06_P20_T34
DataRate	CameraRate	NumFrames	NumMarkers	Units	OrigDataRate	OrigDataStartFrame	OrigNumFrames
240	240	11	51	mm	240	266	354
Frame#	Time	Sternum			R.Acromium			L.Acromium			Top.Head			R.ASIS			L.ASIS			R.PSIS			L.PSIS			R.Great.Tro			L.Great.Tro			R.Iliac.Crest			L.Iliac.Crest			V.Sacral			R.Thigh.Upper.Post			R.Thigh.Lower.Ant			R.Thigh.Lower.Post			R.Thigh.Upper.Ant			R.Knee.Lat			R.Knee.Med			R.Shank.Upper.Post			R.Shank.Lower.Ant			R.Shank.Lower.Post			R.Shank.Upper.Ant			R.Ankle.Lat			R.Ankle.Med			R.Heel.Upper			R.Heel.Med			R.Heel.Lat			R.Toe.Lat			R.Toe.Med			R.Toe.Tip			L.Thigh.Upper.Post			L.Thigh.Lower.Ant			L.Thigh.Lower.Post			L.Thigh.Upper.Ant			L.Knee.Lat			L.Knee.Med			L.Shank.Upper.Post			L.Shank.Lower.Ant			L.Shank.Lower.Post			L.Shank.Upper.Ant			L.Ankle.Lat			L.Ankle.Med			L.Heel.Upper			L.Heel.Med			L.Heel.Lat			L.Toe.Lat			L.Toe.Med			L.Toe.Tip			Cervical.Spine			Back			
		X1	Y1	Z1	X2	Y2	Z2	X3	Y3	Z3	X4	Y4	Z4	X5	Y5	Z5	X6	Y6	Z6	X7	Y7	Z7	X8	Y8	Z8	X9	Y9	Z9	X10	Y10	Z10	X11	Y11	Z11	X12	Y12	Z12	X13	Y13	Z13	X14	Y14	Z14	X15	Y15	Z15	X16	Y16	Z16	X17	Y17	Z17	X18	Y18	Z18	X19	Y19	Z19	X20	Y20	Z20	X21	Y21	Z21	X22	Y22	Z22	X23	Y23	Z23	X24	Y24	Z24	X25	Y25	Z25	X26	Y26	Z26	X27	Y27	Z27	X28	Y28	Z28	X29	Y29	Z29	X30	Y30	Z30	X31	Y31	Z31	X32	Y32	Z32	X33	Y33	Z33	X34	Y34	Z34	X35	Y35	Z35	X36	Y36	Z36	X37	Y37	Z37	X38	Y38	Z38	X39	Y39	Z39	X40	Y40	Z40	X41	Y41	Z41	X42	Y42	Z42	X43	Y43	Z43	X44	Y44	Z44	X45	Y45	Z45	X46	Y46	Z46	X47	Y47	Z47	X48	Y48	Z48	X49	Y49	Z49	X50	Y50	Z50	X51	Y51	Z51	

266	1.1042	130.96	1278.6	331.86	21.758	1490.1	504.5	-0.5086	1488.2	152.07	42.166	1808.9	321.46	66.129	1040.8	457.08	77.857	1046	202.28	-128.65	1069.5	359.11	-126.84	1075.2	278.99	11.751	971.99	504.56	-11.909	981.19	145.71	-13.111	1119.2	486.17	9.5359	1120.3	166.69	-142.08	1037.9	320.62	93.991	735.3	504.35	173.22	675.68	473.69	110.01	648.41	488.2	157.05	765.51	482.59	147.63	547.57	474.76	161.38	550.26	344.76	-30.134	415.44	475.2	-34.744	328.35	451.46	-88.594	365.51	462.47	22.429	378.69	465.23	-161.33	256.21	439.27	-149.27	241.01	349.19	-233.63	274.81	386.77	-252.03	245.74	358.41	-250.57	250.99	423.61	-139.42	117.94	469.25	-119.02	96.194	352.87	-62.27	60.558	398.09	94.363	724.77	164.34	153.9	657.41	228.22	90.774	636	185.43	150.4	749.86	203.85	92.754	543.22	203.41	115.28	555.14	322.21	43.239	318.1	214.67	105.04	254.3	222.69	34.699	247	233.23	109.55	324.43	209.58	74.928	105.05	237.52	77.686	112.71	329.22	-2.7861	71.035	278.48	0.16487	45.046	312.1	4.6998	44.422	250.15	185.78	43.997	223.93	198.02	50.395	343.02	272.58	63.35	295.37	-45.644	1544.1	331.92	-110.71	1274.5	332.09
267	1.1083	136.21	1279.1	332.06	26.863	1490.7	504.65	5.0317	1488.7	152.16	47.812	1809.4	321.51	71.178	1041.5	457.05	83.048	1046.5	202.28	-123.6	1070.1	358.88	-121.66	1075.9	278.79	16.827	972.75	504.48	-6.8991	981.75	145.66	-8.1293	1119.9	486.07	14.908	1121	166.68	-136.95	1038.5	320.39	101.56	737.07	504.04	181.37	678.31	473.2	118.48	650.36	487.81	164.25	767.95	482.21	157.26	549.99	474.42	170.72	552.71	344.37	-19.079	415.72	475.52	-22.363	328.39	452.15	-76.788	364.87	463.03	34.074	379.62	465.68	-147.89	254.33	440.27	-135.79	239.07	350.21	-220.88	271.08	387.79	-238.68	241.43	359.66	-237.15	247.1	424.83	-122.81	117	470.89	-102.31	95.085	354.51	-44.621	61.121	399.81	97.771	724.77	164.31	157.06	657.04	228.02	93.653	636.03	185.43	154.08	749.48	203.66	95.118	543.18	203.49	117.92	555.04	322.23	44.459	318.28	214.79	105.96	254.17	222.79	35.599	247.21	233.4	110.79	324.28	209.66	75.084	105.13	237.66	77.85	112.7	329.32	-2.7582	71.121	278.56	0.16598	45.091	312.13	4.7364	44.528	250.21	185.8	43.956	223.9	198.06	50.174	343.08	272.66	63.065	295.37	-40.25	1544.7	331.96	-105.46	1275.2	331.92
268	1.1125	141.45	1279.6	332.26	31.966	1491.3	504.79	10.563	1489.3	152.26	53.449	1810	321.59	76.235	1042.3	457.01	88.242	1047	202.28	-118.53	1070.8	358.67	-116.47	1076.6	278.6	21.915	973.52	504.4	-1.8997	982.31	145.61	-3.1399	1120.5	485.98	20.284	1121.6	166.67	-131.82	1039.2	320.17	109.05	738.83	503.7	189.4	680.9	472.68	126.83	652.31	487.41	171.35	770.35	481.82	166.73	552.4	474.06	179.92	555.14	343.97	-8.0542	415.84	475.83	-9.9112	328.28	452.83	-64.94	364.02	463.57	45.719	380.46	466.13	-134.26	252.15	441.26	-122.11	236.87	351.22	-207.93	267.02	388.83	-225.09	236.78	360.92	-223.49	242.85	426.07	-105.92	115.82	472.46	-85.316	93.818	356.08	-26.69	61.569	401.42	101.19	724.77	164.32	160.2	656.66	227.86	96.533	636.07	185.45	157.74	749.09	203.53	97.456	543.15	203.59	120.51	554.92	322.26	45.671	318.47	214.9	106.88	254.04	222.9	36.495	247.41	233.55	112.03	324.13	209.75	75.241	105.21	237.81	78.003	112.69	329.43	-2.7293	71.209	278.63	0.16674	45.138	312.16	4.7732	44.636	250.27	185.83	43.915	223.87	198.09	49.957	343.15	272.74	62.793	295.36	-34.863	1545.3	332	-100.2	1275.8	331.75
269	1.1167	146.69	1280.2	332.46	37.07	1491.8	504.93	16.088	1489.9	152.35	59.076	1810.6	321.7	81.3	1043	456.97	93.438	1047.5	202.29	-113.46	1071.5	358.48	-111.27	1077.3	278.43	27.017	974.31	504.33	3.0889	982.87	145.57	1.8592	1121.2	485.88	25.664	1122.2	166.67	-126.67	1039.9	319.98	116.44	740.58	503.35	197.31	683.46	472.13	135.05	654.24	486.98	178.37	772.72	481.42	176.01	554.8	473.67	188.96	557.54	343.56	2.9449	415.79	476.14	2.608	328.02	453.51	-53.044	362.96	464.1	57.365	381.18	466.58	-120.45	249.7	442.24	-108.23	234.43	352.22	-194.76	262.63	389.9	-211.25	231.84	362.18	-209.61	238.27	427.31	-88.792	114.44	473.98	-68.048	92.405	357.58	-8.5033	61.91	402.94	104.63	724.78	164.36	163.31	656.28	227.76	99.416	636.12	185.48	161.4	748.7	203.46	99.77	543.11	203.7	123.04	554.8	322.32	46.878	318.64	214.99	107.79	253.91	223.02	37.388	247.61	233.69	113.25	323.99	209.86	75.398	105.29	237.95	78.146	112.68	329.53	-2.6988	71.3	278.71	0.16799	45.188	312.2	4.8102	44.746	250.34	185.85	43.875	223.84	198.12	49.744	343.22	272.83	62.532	295.35	-29.482	1545.9	332.05	-94.943	1276.5	331.58
270	1.1208	151.93	1280.7	332.64	42.177	1492.4	505.06	21.61	1490.5	152.44	64.691	1811.1	321.83	86.375	1043.8	456.92	98.637	1048	202.31	-108.38	1072.2	358.31	-106.07	1078	278.29	32.139	975.12	504.27	8.0686	983.43	145.53	6.8699	1121.9	485.8	31.044	1122.9	166.67	-121.52	1040.5	319.82	123.75	742.32	502.98	205.09	685.97	471.54	143.15	656.15	486.54	185.3	775.02	481	185.13	557.16	473.27	197.84	559.9	343.14	13.924	415.57	476.43	15.193	327.62	454.17	-41.098	361.68	464.59	69.01	381.79	467.01	-106.46	246.99	443.19	-94.148	231.76	353.2	-181.36	257.94	390.96	-197.17	226.61	363.43	-195.5	233.39	428.53	-71.439	112.88	475.44	-50.52	90.86	359.01	9.9111	62.151	404.38	108.08	724.79	164.44	166.41	655.9	227.72	102.31	636.16	185.53	165.04	748.31	203.45	102.06	543.07	203.83	125.51	554.67	322.4	48.08	318.82	215.09	108.7	253.79	223.15	38.279	247.8	233.83	114.47	323.85	209.98	75.556	105.37	238.1	78.279	112.68	329.64	-2.6663	71.393	278.79	0.17067	45.239	312.24	4.8476	44.858	250.4	185.87	43.835	223.82	198.15	49.535	343.28	272.91	62.28	295.33	-24.104	1546.4	332.1	-89.682	1277.2	331.4
271	1.125	157.17	1281.2	332.82	47.289	1493	505.19	27.132	1491.1	152.53	70.294	1811.7	321.98	91.461	1044.6	456.88	103.84	1048.5	202.33	-103.29	1072.8	358.16	-100.86	1078.7	278.16	37.284	975.93	504.22	13.043	983.99	145.49	11.894	1122.5	485.73	36.426	1123.5	166.68	-116.36	1041.2	319.67	130.96	744.02	502.6	212.75	688.42	470.93	151.11	658.04	486.07	192.15	777.27	480.57	194.07	559.47	472.84	206.55	562.23	342.72	24.889	415.17	476.7	27.842	327.07	454.8	-29.097	360.21	465.07	80.654	382.29	467.42	-92.298	244.05	444.12	-79.865	228.87	354.17	-167.74	252.97	392.01	-182.82	221.13	364.65	-181.15	228.23	429.74	-53.882	111.15	476.85	-32.745	89.197	360.39	28.529	62.304	405.75	111.55	724.81	164.54	169.49	655.52	227.73	105.21	636.21	185.59	168.68	747.92	203.5	104.34	543.03	203.97	127.92	554.52	322.51	49.278	318.98	215.17	109.61	253.67	223.29	39.167	247.99	233.96	115.69	323.71	210.11	75.715	105.45	238.26	78.403	112.67	329.75	-2.6311	71.487	278.86	0.17582	45.291	312.27	4.8854	44.973	250.47	185.9	43.795	223.79	198.17	49.33	343.35	272.99	62.036	295.31	-18.73	1547	332.15	-84.417	1277.8	331.22
272	1.1292	162.41	1281.8	333	52.408	1493.5	505.31	32.655	1491.8	152.62	75.884	1812.2	322.17	96.559	1045.4	456.83	109.04	1049	202.35	-98.188	1073.5	358.04	-95.654	1079.3	278.06	42.454	976.75	504.18	18.015	984.54	145.45	16.933	1123.2	485.67	41.809	1124.1	166.7	-111.19	1041.8	319.56	138.09	745.69	502.21	220.27	690.8	470.3	158.94	659.88	485.59	198.92	779.44	480.13	202.83	561.73	472.4	215.07	564.49	342.29	35.845	414.58	476.95	40.553	326.39	455.41	-17.04	358.53	465.51	92.295	382.67	467.81	-77.964	240.89	445.02	-65.378	225.79	355.1	-153.88	247.75	393.03	-168.22	215.42	365.83	-166.57	222.83	430.9	-36.143	109.29	478.22	-14.735	87.431	361.73	47.328	62.381	407.07	115.03	724.83	164.68	172.55	655.14	227.8	108.12	636.26	185.67	172.32	747.52	203.61	106.6	542.98	204.13	130.29	554.37	322.64	50.473	319.14	215.26	110.52	253.55	223.44	40.053	248.17	234.08	116.89	323.57	210.26	75.876	105.54	238.41	78.517	112.67	329.86	-2.5925	71.583	278.94	0.18443	45.344	312.32	4.9237	45.091	250.53	185.92	43.756	223.76	198.19	49.13	343.41	273.07	61.798	295.29	-13.356	1547.6	332.2	-79.148	1278.5	331.04
273	1.1333	167.65	1282.3	333.16	57.537	1494.1	505.42	38.184	1492.4	152.71	81.46	1812.8	322.37	101.67	1046.2	456.77	114.25	1049.5	202.38	-93.072	1074.2	357.94	-90.439	1080	277.98	47.653	977.57	504.16	22.99	985.08	145.43	21.989	1123.9	485.62	47.192	1124.7	166.73	-106.02	1042.5	319.46	145.13	747.32	501.81	227.65	693.09	469.64	166.63	661.67	485.1	205.61	781.54	479.68	211.42	563.93	471.95	223.39	566.7	341.87	46.797	413.81	477.18	53.321	325.57	455.98	-4.9247	356.65	465.93	103.93	382.93	468.17	-63.465	237.53	445.87	-50.688	222.52	356	-139.78	242.3	394.01	-153.35	209.51	366.96	-151.76	217.21	432	-18.241	107.32	479.54	3.4984	85.579	363.02	66.286	62.395	408.34	118.54	724.85	164.84	175.59	654.76	227.92	111.04	636.31	185.76	175.95	747.13	203.77	108.85	542.93	204.31	132.6	554.21	322.8	51.666	319.29	215.35	111.42	253.43	223.6	40.936	248.35	234.2	118.09	323.43	210.42	76.037	105.63	238.57	78.623	112.66	329.98	-2.5502	71.679	279.03	0.19748	45.397	312.36	4.9625	45.211	250.6	185.94	43.718	223.74	198.22	48.932	343.47	273.14	61.566	295.27	-7.9808	1548.1	332.24	-73.873	1279.1	330.85
274	1.1375	172.9	1282.8	333.33	62.675	1494.6	505.52	43.72	1493	152.79	87.022	1813.3	322.6	106.79	1046.9	456.72	119.46	1050	202.42	-87.941	1074.8	357.86	-85.218	1080.6	277.92	52.881	978.39	504.16	27.97	985.61	145.41	27.063	1124.5	485.57	52.577	1125.3	166.76	-100.83	1043.1	319.39	152.07	748.89	501.4	234.9	695.3	468.97	174.18	663.41	484.59	212.22	783.55	479.22	219.82	566.04	471.49	231.52	568.83	341.46	57.749	412.86	477.39	66.145	324.63	456.51	7.2506	354.59	466.3	115.56	383.06	468.49	-48.803	234	446.67	-35.794	219.09	356.85	-125.44	236.64	394.92	-138.21	203.42	368	-136.72	211.4	433.03	-0.19482	105.25	480.82	21.945	83.657	364.29	85.386	62.361	409.59	122.05	724.87	165.02	178.61	654.38	228.1	113.97	636.36	185.87	179.59	746.73	203.99	111.08	542.88	204.5	134.86	554.04	322.98	52.855	319.43	215.44	112.32	253.31	223.77	41.814	248.51	234.32	119.28	323.28	210.59	76.2	105.72	238.74	78.721	112.66	330.11	-2.5037	71.776	279.11	0.21574	45.448	312.41	5.002	45.335	250.66	185.96	43.682	223.72	198.25	48.737	343.52	273.22	61.338	295.25	-2.6039	1548.6	332.29	-68.592	1279.8	330.67
275	1.1417	178.14	1283.4	333.48	67.825	1495.1	505.62	49.266	1493.7	152.88	92.57	1813.8	322.85	111.93	1047.7	456.67	124.67	1050.4	202.47	-82.793	1075.4	357.81	-79.99	1081.3	277.88	58.141	979.21	504.17	32.96	986.13	145.4	32.156	1125.2	485.54	57.966	1125.9	166.8	-95.643	1043.7	319.35	158.93	750.41	500.99	242.01	697.4	468.28	181.59	665.08	484.07	218.75	785.46	478.75	228.05	568.07	471.02	239.44	570.88	341.05	68.705	411.72	477.57	79.02	323.56	456.98	19.487	352.34	466.64	127.18	383.08	468.78	-33.985	230.32	447.4	-20.695	215.5	357.65	-110.86	230.8	395.77	-122.79	197.17	368.97	-121.45	205.42	433.98	17.978	103.12	482.06	40.593	81.683	365.52	104.61	62.294	410.82	125.58	724.89	165.24	181.62	654	228.34	116.91	636.4	186	183.22	746.33	204.25	113.29	542.82	204.71	137.07	553.86	323.19	54.04	319.57	215.55	113.22	253.19	223.95	42.688	248.68	234.45	120.47	323.14	210.78	76.364	105.81	238.91	78.815	112.66	330.24	-2.4529	71.873	279.2	0.2396	45.499	312.47	5.0423	45.463	250.72	185.98	43.648	223.7	198.28	48.543	343.57	273.3	61.113	295.23	2.7767	1549.1	332.33	-63.305	1280.4	330.48
276	1.1458	183.4	1283.9	333.63	72.986	1495.6	505.71	54.824	1494.3	152.96	98.104	1814.2	323.12	117.08	1048.5	456.63	129.88	1050.9	202.53	-77.626	1076	357.78	-74.756	1081.9	277.86	63.433	980.02	504.2	37.964	986.63	145.4	37.266	1125.8	485.52	63.36	1126.4	166.84	-90.444	1044.3	319.32	165.69	751.87	500.57	248.97	699.39	467.58	188.84	666.68	483.54	225.21	787.28	478.28	236.09	570	470.55	247.14	572.84	340.66	79.667	410.41	477.71	91.941	322.38	457.41	31.785	349.92	466.94	138.79	382.97	469.02	-19.015	226.49	448.07	-5.3936	211.79	358.39	-96.028	224.8	396.52	-107.1	190.8	369.83	-105.95	199.3	434.83	36.26	100.93	483.26	59.432	79.677	366.74	123.94	62.21	412.05	129.11	724.9	165.48	184.6	653.61	228.62	119.86	636.44	186.15	186.86	745.92	204.57	115.49	542.75	204.94	139.25	553.67	323.43	55.219	319.7	215.67	114.1	253.06	224.15	43.555	248.84	234.58	121.65	322.99	210.99	76.531	105.91	239.09	78.906	112.65	330.38	-2.3978	71.969	279.29	0.26899	45.547	312.52	5.0837	45.594	250.79	186	43.615	223.68	198.31	48.349	343.63	273.37	60.89	295.21	8.1621	1549.6	332.38	-58.011	1281	330.29
